<?xml version="1.0" encoding="UTF-8"?>
<svg width="144px" height="144px" viewBox="0 0 144 144" version="1.1" xmlns="http://www.w3.org/2000/svg" xmlns:xlink="http://www.w3.org/1999/xlink">
    <title>8B00FD63-F981-4D11-94D0-210AF6E3CB02</title>
    <g id="Hesaplama-Araçları" stroke="none" stroke-width="1" fill="none" fill-rule="evenodd">
        <g id="Hesaplama-Araçları---1" transform="translate(-1000.000000, -520.000000)">
            <g id="Component-/-Card-/-Calculator-/-01" transform="translate(976.000000, 492.000000)">
                <g id="Group" transform="translate(24.000000, 28.000000)">
                    <rect id="Rectangle" x="0" y="0" width="144" height="144"></rect>
                    <path d="M72.0015847,43.5 C45.5349246,43.5 24,65.0351647 24,91.5015847 L24,93.8801026 L54.642068,93.8801026 L54.642068,91.5015847 C54.642068,81.9293599 62.4276792,74.1437487 71.999904,74.1437487 C73.508045,74.1437487 74.9702301,74.3407084 76.3743581,74.700862 L73.507997,81.6393864 C73.0202978,81.5699819 72.5100769,81.5118311 71.9998559,81.5118311 C66.5000345,81.5118311 62.0213753,85.9902503 62.0213753,91.4903118 C62.0213753,96.9903733 66.4997944,101.468792 71.9998559,101.468792 C77.4999175,101.468792 81.9783366,96.9903733 81.9783366,91.4903118 C81.9783366,88.1953651 80.3651261,85.2711389 77.893688,83.4609951 L80.7600491,76.5224707 C85.8997146,79.5386567 89.357932,85.1203536 89.357932,91.5018368 L89.357932,93.8803547 L120,93.8803547 L120,91.5018368 C120,65.0351767 98.4655556,43.5 71.9984153,43.5 L72.0015847,43.5 Z M72.0015847,96.7334501 C69.1241788,96.7334501 66.768999,94.3896272 66.768999,91.5008644 C66.768999,88.6234585 69.1128219,86.2682787 72.0015847,86.2682787 C74.8789906,86.2682787 77.2341707,88.6121015 77.2341707,91.5008644 C77.2351082,94.3895552 74.8790866,96.7334501 72.0015847,96.7334501 Z M43.1674995,59.3132471 C50.2683342,52.9430488 59.4926483,48.8819304 69.6221544,48.3256095 L69.6221544,69.5241485 C65.3058054,69.9884135 61.3611374,71.6935358 58.1468656,74.2933335 L43.1674995,59.3132471 Z M50.0133438,89.1341596 L28.8148048,89.1341596 C29.371918,78.9936087 33.4329645,69.7805795 39.8024425,62.6795047 L54.7818085,77.6588708 C52.1951685,80.8608973 50.4777048,84.8168502 50.0135839,89.1341596 L50.0133438,89.1341596 Z M83.7191384,63.1092908 C82.5008028,62.6103308 81.1202531,63.1908878 80.621317,64.3970404 L78.1957868,70.2795876 C76.9661904,69.9194316 75.6895816,69.6643212 74.3786139,69.525517 L74.3786139,48.3269781 C84.5191648,48.8840913 93.732194,52.9451377 100.833269,59.3146157 L85.8539027,74.2949422 C84.8325245,73.4714576 83.7417322,72.7398849 82.5815258,72.1021207 L85.0070561,66.2195736 C85.5060161,65.001238 84.9376516,63.608443 83.7193065,63.1095069 L83.7191384,63.1092908 Z M93.988385,89.1341596 C93.5241199,84.8178106 91.8068244,80.8731426 89.2191999,77.6588708 L104.198566,62.6795047 C110.568764,69.7803394 114.641168,79.0046535 115.186204,89.1341596 L93.988385,89.1341596 Z" id="Shape" fill="#DF1D2F" fill-rule="nonzero"></path>
                </g>
            </g>
        </g>
    </g>
</svg>