<?xml version="1.0" encoding="UTF-8"?>
<svg width="30px" height="30px" viewBox="0 0 40 40" version="1.1" xmlns="http://www.w3.org/2000/svg" xmlns:xlink="http://www.w3.org/1999/xlink">
    <g id="Hesaplama-Araçları" stroke="none" stroke-width="1" fill="none" fill-rule="evenodd">
        <g id="Hesaplama-Araçları---1" transform="translate(-880.000000, -572.000000)">
            <g id="Group-4-Copy-5" transform="translate(268.000000, 492.000000)">
                <g id="Group" transform="translate(612.000000, 80.000000)">
                    <g id="Oval-2" fill="#F5F7F9">
                        <circle id="Oval" cx="20" cy="20" r="20"></circle>
                    </g>
                    <g id="Path-Copy-3" transform="translate(17.113644, 12.500000)" fill="#171A1D" fill-rule="nonzero">
                        <path d="M4.10397044,3.3644037 C3.84779399,3.37037645 3.60313385,3.47105378 3.41714191,3.64724403 L-3.04760835,9.85371007 L-3.04782164,9.85371007 C-3.31359774,10.1109513 -3.42216994,10.4901923 -3.33301001,10.8491691 C-3.24385008,11.2079439 -2.97018348,11.4922586 -2.61505633,11.5952993 C-2.25992918,11.6983399 -1.87662557,11.6042579 -1.60933143,11.3487225 L4.13626383,5.82919417 L9.88185909,11.3487225 L9.88207238,11.3487225 C10.1493392,11.60426 10.5324244,11.6983235 10.8877973,11.5952993 C11.2429463,11.492275 11.5166347,11.2079385 11.605751,10.8491691 C11.6949109,10.4901814 11.5861268,10.1109022 11.3203496,9.85371007 L4.85559936,3.64724403 C4.65338957,3.4556987 4.38249147,3.35373923 4.10411787,3.3644037 L4.10397044,3.3644037 Z" id="Path-Copy-2" transform="translate(4.136356, 7.500000) rotate(-270.000000) translate(-4.136356, -7.500000) "></path>
                    </g>
                </g>
            </g>
        </g>
    </g>
</svg>