<!DOCTYPE svg PUBLIC "-//W3C//DTD SVG 1.1//EN" "http://www.w3.org/Graphics/SVG/1.1/DTD/svg11.dtd">
<!-- Uploaded to: SVG Repo, www.svgrepo.com, Transformed by: SVG Repo Mixer Tools -->
<svg fill="#000000" height="64px" width="64px" version="1.1" id="Layer_1" xmlns="http://www.w3.org/2000/svg" xmlns:xlink="http://www.w3.org/1999/xlink" viewBox="-87.04 -87.04 686.08 686.08" xml:space="preserve" stroke="#000000" stroke-width="0.00512">
<g id="SVGRepo_bgCarrier" stroke-width="0"/>
<g id="SVGRepo_tracerCarrier" stroke-linecap="round" stroke-linejoin="round" stroke="#CCCCCC" stroke-width="1.024"/>
<g id="SVGRepo_iconCarrier"> <g> <g> <path d="M501.801,141.431H391.042c-5.632,0-10.199,4.567-10.199,10.199v12.805H187.389v-12.805 c0-5.632-4.567-10.199-10.199-10.199H66.432c-5.632,0-10.199,4.567-10.199,10.199v86.052c0,5.632,4.567,10.199,10.199,10.199 h110.759c5.632,0,10.199-4.567,10.199-10.199v-12.805h193.453v12.805c0,5.632,4.567,10.199,10.199,10.199h110.758 c5.632,0,10.199-4.567,10.199-10.199v-86.052C512,145.997,507.433,141.431,501.801,141.431z M166.992,227.483h-0.001h-90.36 V161.83h90.361V227.483z M380.842,204.479H187.389v-19.646h193.453V204.479z M491.602,227.483h-90.361V161.83h90.361V227.483z"/> </g> </g> <g> <g> <path d="M445.569,264.119H334.81c-5.632,0-10.199,4.567-10.199,10.199v12.805H131.158v-12.805c0-5.632-4.567-10.199-10.199-10.199 H10.199C4.567,264.119,0,268.686,0,274.318v86.052c0,5.632,4.567,10.199,10.199,10.199h110.759 c5.632,0,10.199-4.567,10.199-10.199v-12.805h193.453v12.805c0,5.632,4.567,10.199,10.199,10.199H445.57 c5.632,0,10.199-4.567,10.199-10.199v-86.052C455.768,268.686,451.202,264.119,445.569,264.119z M110.759,350.17H20.398v-65.653 h90.361V350.17z M324.611,327.166H131.158V307.52h193.453V327.166z M435.37,350.17h-90.361v-65.653h90.361V350.17z"/> </g> </g> <g> <g> <path d="M438.291,170.327h-17.064c-5.632,0-10.199,4.567-10.199,10.199c0,5.632,4.567,10.199,10.199,10.199h17.064 c5.632,0,10.199-4.567,10.199-10.199C448.491,174.894,443.923,170.327,438.291,170.327z"/> </g> </g> <g> <g> <path d="M470.183,170.327h-3.409c-5.632,0-10.199,4.567-10.199,10.199c0,5.632,4.567,10.199,10.199,10.199h3.409 c5.632,0,10.199-4.567,10.199-10.199C480.383,174.894,475.815,170.327,470.183,170.327z"/> </g> </g> </g>
</svg>