<?xml version="1.0" standalone="no"?>
<!DOCTYPE svg PUBLIC "-//W3C//DTD SVG 20010904//EN"
 "http://www.w3.org/TR/2001/REC-SVG-20010904/DTD/svg10.dtd">
<svg version="1.0" xmlns="http://www.w3.org/2000/svg"
 width="1024.000000pt" height="1024.000000pt" viewBox="0 0 1024.000000 1024.000000"
 preserveAspectRatio="xMidYMid meet">

<g transform="translate(0.000000,1024.000000) scale(0.100000,-0.100000)"
fill="#000000" stroke="none">
<path d="M5070 9247 c-75 -20 -80 -39 -80 -315 0 -148 -4 -231 -10 -227 -5 3
-57 65 -116 136 -150 183 -161 193 -242 209 -183 34 -312 -152 -233 -335 11
-25 66 -89 143 -165 104 -105 128 -134 146 -181 19 -52 47 -178 40 -183 -2 -2
-50 1 -108 6 -58 5 -235 8 -395 6 -278 -3 -292 -4 -332 -25 -51 -27 -96 -82
-112 -132 -14 -50 -14 -233 1 -283 14 -48 76 -120 122 -142 25 -12 64 -16 150
-16 64 0 116 -3 116 -6 0 -3 -13 -49 -29 -102 -17 -54 -37 -131 -46 -173 l-16
-76 -108 -6 c-212 -12 -444 -92 -632 -216 -362 -239 -629 -639 -719 -1077 -18
-84 -39 -316 -40 -431 l0 -33 -115 0 -115 0 0 459 0 460 -22 15 c-18 13 -57
16 -216 16 -257 0 -242 13 -242 -215 l0 -165 -118 0 c-133 0 -153 -8 -172 -66
-7 -19 -10 -68 -8 -107 l3 -72 -105 -5 c-58 -3 -112 -9 -120 -13 -40 -19 -41
-27 -40 -610 1 -659 -11 -601 120 -604 l80 -2 0 565 0 564 35 0 35 0 0 -655 0
-656 25 -24 c22 -23 32 -25 110 -25 l85 0 0 810 0 810 35 0 35 0 0 -945 c0
-935 0 -945 20 -965 19 -19 31 -20 238 -18 l217 3 3 433 2 432 148 0 148 0 28
-87 c61 -191 183 -406 328 -578 101 -119 771 -782 1342 -1325 61 -58 182 -175
271 -261 238 -232 284 -272 360 -316 105 -61 161 -76 264 -71 144 8 241 58
388 198 43 41 125 119 183 175 58 55 175 166 260 246 85 80 348 327 584 550
236 222 493 463 571 536 307 287 500 560 594 843 l29 85 151 3 151 3 0 -410
c0 -242 4 -420 10 -435 l10 -26 255 0 256 0 24 25 c23 22 25 32 25 108 0 46 3
105 6 130 l6 45 115 4 c112 3 115 4 139 31 21 25 24 38 24 113 l0 84 88 0
c106 0 155 13 182 47 18 23 20 40 20 154 l0 129 115 0 c94 0 123 4 153 19 67
34 72 54 72 271 0 213 -5 233 -63 269 -30 18 -50 21 -155 21 l-120 0 -4 131
-3 131 -33 29 c-32 28 -35 29 -142 29 l-110 0 0 79 c0 89 -8 119 -41 150 -20
19 -35 21 -133 21 l-111 0 4 137 c2 82 -1 152 -8 174 -10 35 -15 37 -76 53
-48 12 -112 16 -252 16 -103 0 -198 -3 -209 -6 -42 -11 -44 -34 -44 -499 l0
-445 -110 0 -110 0 0 95 c0 169 -33 394 -82 560 -70 239 -221 495 -405 685
-207 215 -443 344 -748 410 -141 31 -511 40 -670 16 -151 -22 -145 -23 -145
22 0 30 -12 119 -23 175 -5 25 182 104 318 134 43 9 152 18 280 22 l210 6 45
30 c29 20 55 49 74 85 26 47 30 67 34 155 6 128 -12 198 -66 254 -63 66 -95
71 -473 71 -180 0 -373 -5 -429 -10 -56 -6 -104 -9 -107 -7 -9 9 28 154 51
202 17 33 65 89 140 163 123 122 156 172 164 254 15 155 -117 278 -265 248
-70 -15 -110 -49 -250 -215 l-118 -140 -5 253 -5 252 -28 27 c-27 28 -29 28
-165 30 -83 1 -155 -2 -182 -10z m258 -391 c1 -194 -1 -302 -8 -306 -5 -3 -12
-21 -14 -38 -2 -24 1 -32 13 -32 14 0 14 -2 1 -10 -9 -6 -17 -5 -22 3 -6 9 -8
9 -8 0 0 -7 -7 -13 -16 -13 -8 0 -13 -4 -10 -9 3 -5 0 -14 -8 -20 -11 -9 -13
-6 -11 13 2 14 -3 30 -11 37 -11 9 -14 9 -14 0 0 -7 -4 -10 -9 -6 -5 3 -13 -4
-16 -16 -4 -11 -9 -18 -12 -15 -3 3 6 24 21 46 14 22 26 46 26 55 0 8 5 15 12
15 6 0 8 3 5 6 -10 11 -36 -16 -31 -31 3 -7 1 -16 -5 -19 -5 -4 -12 3 -16 14
-6 20 -35 28 -35 10 0 -5 5 -10 12 -10 6 0 9 -3 5 -6 -3 -3 -16 1 -29 10 -12
9 -19 16 -14 16 5 0 3 7 -4 15 -10 12 -9 15 6 16 11 0 14 3 7 6 -21 8 -15 26
7 20 11 -3 18 -1 14 4 -3 5 -14 9 -26 9 -16 0 -18 3 -9 14 9 11 9 15 -1 20
-10 5 -10 7 0 12 6 3 12 10 12 15 0 6 -3 8 -8 5 -4 -2 -8 26 -8 62 0 37 -4 76
-9 86 -6 15 -5 17 5 11 9 -6 11 -4 5 5 -9 14 -8 263 1 293 5 16 17 17 102 15
l97 -3 3 -299z m-680 66 c31 -33 190 -242 218 -286 l18 -29 -32 17 c-18 9 -32
14 -32 11 0 -4 -7 1 -16 10 -12 11 -20 13 -27 6 -21 -21 -30 -11 -11 11 17 19
17 21 2 15 -11 -4 -22 0 -28 11 -8 12 -13 14 -16 5 -6 -14 -25 -18 -23 -5 3
20 -3 32 -17 32 -8 0 -12 5 -9 10 4 6 11 7 17 4 7 -5 8 -2 4 5 -5 7 -14 10
-22 7 -8 -3 -14 0 -14 5 0 7 -10 9 -22 6 -23 -6 -23 -6 -3 10 20 15 20 15 -2
10 -14 -3 -20 -1 -17 7 2 6 -10 17 -27 25 -18 8 -40 22 -51 33 -10 10 -23 16
-28 13 -6 -4 -7 2 -3 12 6 16 5 17 -12 3 -17 -14 -18 -14 -2 17 36 69 109 85
155 35z m1285 -13 c11 -13 17 -38 17 -68 0 -33 -3 -42 -10 -31 -8 12 -10 10
-10 -9 0 -35 -11 -19 -12 18 -1 23 -4 28 -13 21 -7 -6 -10 -21 -7 -35 2 -15 0
-25 -7 -25 -7 0 -9 5 -5 12 4 7 3 8 -4 4 -9 -5 -9 -13 -2 -26 15 -27 12 -37
-4 -15 -18 25 -50 13 -43 -16 5 -17 3 -18 -11 -7 -13 11 -15 11 -9 -4 4 -13 1
-18 -9 -18 -11 0 -14 -6 -10 -16 4 -10 2 -14 -6 -11 -7 2 -12 10 -10 16 1 7
-2 10 -7 6 -6 -3 -7 -13 -4 -23 3 -9 3 -14 -2 -10 -4 4 -17 -2 -27 -14 -16
-19 -21 -20 -29 -8 -8 11 -9 7 -5 -15 5 -22 4 -26 -4 -15 -9 13 -11 13 -20 0
-5 -8 -10 -22 -11 -30 0 -10 -3 -8 -9 5 -8 19 -9 19 -9 -1 -1 -20 -38 -54 -58
-54 -4 0 -2 4 5 8 10 7 8 13 -7 30 -15 19 -20 20 -25 7 -3 -8 -2 -15 2 -15 4
0 8 -11 8 -25 1 -14 -2 -25 -7 -25 -5 0 -9 7 -9 15 0 8 -4 15 -10 15 -5 0 -10
-5 -10 -12 0 -6 -3 -9 -6 -5 -15 15 90 180 185 293 14 16 37 45 51 63 13 18
35 38 49 45 32 17 90 4 114 -25z m-1337 -137 c0 -10 -6 -19 -13 -19 -8 0 -9 6
-2 19 5 10 11 18 12 18 2 0 3 -8 3 -18z m1269 -62 c3 -5 1 -10 -4 -10 -6 0
-11 5 -11 10 0 6 2 10 4 10 3 0 8 -4 11 -10z m-1070 -69 c3 -5 2 -12 -3 -15
-5 -3 -9 1 -9 9 0 17 3 19 12 6z m532 -138 c-3 -10 -5 -4 -5 12 0 17 2 24 5
18 2 -7 2 -21 0 -30z m-177 6 c0 -14 -17 -10 -23 5 -4 10 -1 13 9 9 7 -3 14
-9 14 -14z m45 -9 c8 -13 -5 -13 -25 0 -13 8 -13 10 2 10 9 0 20 -4 23 -10z
m-20 -28 c-3 -3 -11 0 -18 7 -9 10 -8 11 6 5 10 -3 15 -9 12 -12z m60 -21 c3
-5 1 -12 -5 -16 -5 -3 -10 1 -10 9 0 18 6 21 15 7z m75 -51 c-18 -12 -30 -13
-30 -2 0 4 10 9 22 9 18 2 20 0 8 -7z m-30 -313 l0 -95 -51 -16 c-72 -24 -148
-60 -205 -98 -27 -18 -63 -40 -79 -48 -45 -24 -208 -193 -257 -267 -61 -93
-82 -141 -164 -363 -32 -89 -26 -80 -57 -86 -20 -3 -30 3 -47 26 -12 16 -27
30 -35 30 -17 0 -13 32 5 38 8 3 10 0 5 -7 -4 -7 2 -21 13 -32 14 -13 23 -15
28 -8 4 7 -1 16 -10 21 -9 5 -14 13 -11 19 4 5 0 9 -7 9 -10 0 -10 2 1 9 12 8
11 12 -4 27 -17 17 -17 17 -11 -4 6 -16 3 -22 -8 -22 -9 0 -16 -4 -16 -10 0
-5 -5 -10 -11 -10 -5 0 -7 5 -4 10 3 6 -1 10 -10 10 -10 0 -14 -5 -9 -12 5
-10 3 -10 -7 0 -12 11 -12 14 1 22 8 6 21 8 28 5 16 -6 16 41 0 51 -7 4 -8 3
-4 -5 7 -11 -11 -34 -30 -38 -5 -1 -10 7 -10 18 0 12 5 18 14 14 7 -2 10 0 7
5 -3 6 -12 10 -19 10 -10 0 -12 14 -8 53 3 28 9 54 13 55 5 2 6 8 3 13 -6 11
27 99 38 99 4 0 12 10 18 23 11 21 10 21 -4 3 -40 -50 1 45 55 129 23 36 46
62 51 59 6 -4 7 2 3 15 -5 17 -3 20 11 14 11 -4 15 -2 11 4 -8 13 33 65 92
118 25 22 56 51 70 64 60 55 228 154 316 186 61 22 194 52 241 54 l54 2 0 -94z
m-997 -46 c108 -1 197 -4 196 -8 0 -5 -22 -26 -48 -48 -27 -22 -55 -51 -64
-65 -9 -14 -28 -37 -42 -52 -26 -28 -27 -28 -155 -28 l-130 0 0 98 c0 54 3
101 6 104 3 3 13 5 22 3 9 -2 106 -4 215 -4z m2158 -1 l79 0 0 -100 0 -100
-177 -1 c-200 -2 -190 -1 -294 -23 -112 -24 -191 -52 -298 -105 -171 -85 -309
-199 -415 -341 -89 -120 -156 -297 -158 -422 -1 -32 -4 -58 -7 -58 -3 0 -7
-37 -8 -81 -3 -86 -8 -105 -24 -77 -5 10 -16 15 -23 12 -8 -3 -17 -1 -21 5 -8
14 -25 14 -25 0 0 -5 4 -8 9 -5 5 4 11 1 13 -4 2 -6 10 -12 18 -13 45 -8 62
-46 26 -60 -18 -7 -66 4 -66 15 0 6 8 8 18 5 9 -2 23 -6 31 -8 7 -2 16 2 19
10 3 10 0 12 -12 8 -11 -4 -16 -1 -16 9 0 11 -6 14 -16 10 -9 -3 -20 -6 -25
-6 -5 0 -9 -7 -9 -15 0 -8 -4 -15 -10 -15 -5 0 -6 -8 -3 -17 4 -10 -8 -2 -26
17 -31 33 -32 33 -27 10 3 -14 6 -31 6 -38 0 -7 5 -10 12 -6 7 4 8 3 4 -4 -12
-20 -26 -13 -26 12 0 13 -7 26 -15 30 -8 3 -15 1 -15 -4 0 -6 -5 -10 -12 -10
-8 0 -9 3 -2 10 12 12 6 80 -7 80 -5 0 -9 11 -9 25 0 14 -7 28 -15 31 -8 4
-15 13 -15 21 0 9 -6 13 -15 9 -16 -6 -19 8 -18 84 1 104 4 135 13 115 7 -15
8 -10 6 20 -3 38 38 181 66 230 6 11 27 47 46 80 18 33 37 62 40 65 4 3 26 30
48 61 62 83 175 191 193 184 9 -3 12 -3 9 1 -17 16 154 139 287 207 91 46 227
94 340 119 99 22 296 38 389 32 32 -2 94 -4 137 -4z m30 -970 c297 -30 544
-143 756 -347 l34 -32 -38 6 c-21 2 -70 11 -108 19 -39 7 -122 18 -185 24
-197 19 -189 19 -207 -4 -11 -15 -14 -16 -10 -4 12 35 -46 46 -70 14 -12 -16
-14 -17 -10 -3 4 9 4 17 0 17 -3 0 -12 -8 -20 -17 -14 -17 -14 -17 -9 0 4 13
0 17 -18 17 -14 0 -31 3 -40 6 -12 4 -16 0 -16 -15 0 -12 -4 -21 -10 -21 -5 0
-7 6 -4 14 3 7 -2 16 -10 19 -10 4 -13 1 -9 -9 3 -7 0 -14 -7 -14 -6 0 -9 -4
-6 -8 2 -4 -4 -8 -15 -8 -23 0 -25 14 -4 22 21 9 19 20 -5 20 -12 0 -20 -7
-20 -17 0 -9 -10 -19 -23 -21 -29 -6 -49 1 -41 14 4 6 10 5 15 -3 6 -10 9 -8
9 9 0 24 -25 30 -33 8 -8 -21 -50 -8 -42 13 3 9 -3 5 -14 -9 -11 -14 -17 -27
-14 -30 3 -3 8 1 10 8 3 6 9 9 14 6 6 -3 3 -11 -7 -19 -27 -19 -48 3 -26 28
14 16 14 17 -9 15 -14 -2 -27 -12 -31 -23 -5 -16 -6 -14 -7 10 -1 21 -4 26
-10 16 -5 -8 -18 -12 -29 -8 -12 2 -24 0 -27 -7 -3 -8 -7 -8 -11 2 -10 21 -26
13 -19 -10 6 -22 5 -22 -6 -3 -16 26 -32 36 -42 26 -5 -5 -24 -5 -42 -1 -27 6
-38 4 -54 -12 -12 -10 -21 -14 -21 -8 0 7 -6 10 -12 7 -7 -2 -18 3 -25 12 -11
15 -12 14 -13 -1 0 -9 -5 -20 -12 -24 -8 -5 -9 0 -5 17 l6 24 -18 -24 c-10
-13 -22 -21 -27 -18 -5 3 -28 2 -51 -2 -28 -6 -44 -4 -47 3 -3 7 -11 3 -21 -9
-15 -19 -17 -19 -29 -3 -7 10 -16 15 -19 11 -4 -3 -15 1 -24 9 -28 23 -43 30
-43 19 0 -6 7 -11 15 -11 8 0 20 -10 26 -22 11 -21 11 -22 -4 -10 -13 11 -16
10 -22 -9 -6 -17 -9 -19 -16 -8 -7 12 -9 12 -9 0 0 -11 -3 -11 -15 -1 -9 7
-14 19 -11 27 3 7 1 13 -3 13 -15 0 -20 -27 -8 -41 10 -11 9 -11 -4 -1 -18 13
-30 7 -23 -13 3 -7 0 -16 -7 -21 -9 -5 -10 -2 -6 9 4 12 1 17 -11 18 -10 0
-12 3 -4 6 6 2 10 9 6 14 -3 5 1 9 8 9 18 0 -12 20 -31 20 -9 0 -11 -8 -6 -27
5 -24 4 -26 -7 -13 -7 8 -19 20 -27 27 -11 10 -1 24 55 81 116 117 250 190
414 228 143 32 344 41 521 24z m-2381 -110 c47 -33 103 -73 125 -88 138 -93
350 -261 411 -323 79 -83 122 -144 214 -304 113 -198 167 -260 265 -301 110
-46 255 8 319 120 13 22 36 79 51 126 31 102 60 154 110 197 50 44 155 94 211
101 l46 5 -49 -69 c-75 -105 -101 -155 -129 -246 -90 -290 -118 -345 -210
-426 -80 -71 -165 -102 -280 -102 -201 0 -347 119 -527 431 -125 217 -270 392
-399 482 -26 17 -111 77 -190 132 -79 55 -163 113 -188 129 -60 38 -88 64
-116 108 -35 55 -32 66 24 73 26 4 52 8 57 10 6 2 46 4 90 4 l81 1 84 -60z
m-510 -116 c39 -70 86 -135 92 -128 3 2 16 -11 29 -31 13 -19 32 -38 42 -41 9
-3 15 -10 12 -15 -4 -5 -2 -9 3 -9 5 0 38 -19 72 -42 97 -67 180 -117 245
-150 77 -39 185 -127 229 -187 56 -76 86 -186 69 -250 -6 -23 -7 -23 -14 -5
-7 16 -8 17 -8 2 -1 -21 -14 -23 -44 -7 l-22 12 20 -20 c11 -11 24 -18 29 -15
5 3 6 0 2 -7 -8 -12 -14 -10 -58 21 -31 21 -39 14 -10 -9 15 -13 15 -13 -8 -7
-20 6 -23 4 -15 -8 6 -7 1 -4 -10 9 -24 27 -35 29 -35 7 0 -8 5 -12 10 -9 12
8 13 -5 1 -24 -8 -12 -11 -8 -16 15 -4 16 -8 35 -11 42 -2 6 1 12 7 12 6 0 7
5 4 10 -13 21 -23 8 -18 -25 3 -21 0 -35 -6 -35 -6 0 -10 10 -8 23 2 18 -2 22
-23 19 -13 -1 -27 -7 -31 -13 -5 -8 -8 -8 -13 0 -4 6 -2 11 3 11 6 0 11 10 10
23 0 14 -3 17 -6 7 -7 -15 -33 -45 -33 -36 0 2 5 17 10 32 9 23 9 25 -4 14
-13 -10 -19 -9 -33 6 -13 12 -14 19 -5 22 6 2 12 8 12 14 0 6 -7 8 -15 5 -8
-4 -17 -1 -21 5 -4 7 -9 6 -15 -3 -5 -9 -10 -5 -14 14 -4 15 -11 27 -16 27 -5
0 -9 7 -9 15 0 9 -7 18 -15 21 -11 5 -12 11 -4 25 12 24 -9 56 -61 90 -19 13
-44 32 -54 41 -10 10 -23 15 -27 12 -4 -2 -11 1 -16 9 -4 7 -33 28 -63 47 -63
40 -60 37 -135 110 -48 46 -95 107 -140 178 -5 9 -15 22 -22 29 -24 27 -42
123 -23 123 5 0 35 18 66 40 32 22 63 40 70 40 7 0 26 -25 44 -56z m1340 -64
c0 -5 -4 -10 -10 -10 -5 0 -10 5 -10 10 0 6 5 10 10 10 6 0 10 -4 10 -10z
m1195 -20 c3 -5 1 -10 -4 -10 -6 0 -11 5 -11 10 0 6 2 10 4 10 3 0 8 -4 11
-10z m578 -8 c4 9 6 10 6 1 1 -7 -7 -17 -17 -22 -14 -7 -18 -6 -18 9 0 14 4
16 12 9 8 -7 14 -6 17 3z m-1753 -11 c0 -13 -29 -35 -37 -27 -3 3 -1 6 5 6 7
0 12 7 12 15 0 8 5 15 10 15 6 0 10 -4 10 -9z m1617 -13 c-3 -8 -6 -5 -6 6 -1
11 2 17 5 13 3 -3 4 -12 1 -19z m32 -28 c1 -13 0 -13 -9 0 -5 8 -9 24 -9 35
l0 20 9 -20 c5 -11 9 -27 9 -35z m-412 18 c-3 -8 -6 -5 -6 6 -1 11 2 17 5 13
3 -3 4 -12 1 -19z m-462 2 c3 -5 1 -10 -4 -10 -6 0 -11 5 -11 10 0 6 2 10 4
10 3 0 8 -4 11 -10z m75 -10 c0 -5 -7 -7 -15 -4 -8 4 -15 8 -15 10 0 2 7 4 15
4 8 0 15 -4 15 -10z m855 2 c-3 -3 0 -11 7 -19 8 -11 7 -12 -6 -7 -9 3 -16 10
-16 16 0 5 -5 6 -12 2 -6 -4 -8 -3 -5 3 3 5 13 10 22 10 8 0 13 -3 10 -5z
m195 -12 c0 -5 -2 -10 -4 -10 -3 0 -8 5 -11 10 -3 6 -1 10 4 10 6 0 11 -4 11
-10z m-1920 -14 c0 -3 -4 -8 -10 -11 -5 -3 -10 -1 -10 4 0 6 5 11 10 11 6 0
10 -2 10 -4z m2371 -28 c9 -18 9 -21 -1 -11 -7 6 -19 9 -26 6 -8 -3 -14 -1
-14 5 0 9 6 14 27 21 1 1 8 -9 14 -21z m-2181 -19 c0 -5 -9 -9 -19 -9 -11 0
-21 -6 -24 -12 -2 -7 -7 -10 -11 -6 -13 12 16 46 36 40 10 -2 18 -8 18 -13z
m30 7 c0 -3 -4 -8 -10 -11 -5 -3 -10 -1 -10 4 0 6 5 11 10 11 6 0 10 -2 10 -4z
m-20 -36 c0 -5 -4 -10 -9 -10 -6 0 -13 5 -16 10 -3 6 1 10 9 10 9 0 16 -4 16
-10z m-1887 -131 c157 -124 186 -149 266 -224 91 -87 142 -152 221 -285 102
-171 164 -241 261 -297 152 -88 340 -64 453 57 25 26 56 71 71 99 l26 52 76
-107 76 -108 -94 -90 c-103 -99 -163 -137 -254 -161 -95 -24 -287 -15 -305 15
-3 5 -20 10 -38 12 -19 1 -32 8 -32 16 0 7 -4 10 -10 7 -5 -3 -10 -1 -10 5 0
6 -4 8 -10 5 -5 -3 -10 -1 -10 5 0 6 -4 8 -10 5 -5 -3 -10 1 -10 9 0 9 -7 16
-15 16 -8 0 -15 5 -15 10 0 6 -5 10 -11 10 -26 0 -199 199 -199 229 0 6 -3 11
-7 11 -5 0 -26 34 -47 75 -22 41 -43 75 -48 75 -4 0 -8 6 -8 14 0 8 -13 28
-29 45 -15 16 -26 33 -23 35 2 3 -6 18 -19 34 -13 16 -31 39 -39 51 -35 52
-68 79 -81 67 -9 -8 -10 -8 -5 1 9 15 -28 58 -43 49 -5 -3 -12 3 -16 14 -4 11
-10 18 -14 16 -4 -3 -8 2 -8 10 0 9 6 13 15 9 12 -4 12 -2 4 8 -7 8 -11 16 -9
18 1 3 -5 -3 -14 -13 -16 -16 -17 -16 -23 13 -5 27 -26 33 -26 8 0 -6 5 -7 12
-3 7 5 8 3 3 -6 -6 -10 -12 -8 -24 7 -9 11 -25 23 -36 27 -16 6 -17 9 -5 16
13 8 13 10 -2 10 -18 0 -18 24 0 42 19 19 14 33 -5 16 -38 -32 -46 -33 -39 -2
l8 29 -28 -25 c-26 -24 -26 -24 -15 -2 8 14 8 22 1 22 -5 0 -10 5 -10 11 0 5
6 7 12 3 7 -5 19 -9 28 -10 8 -1 23 -5 33 -9 10 -4 17 -3 17 4 0 6 -8 11 -18
11 -10 0 -22 3 -26 8 -4 4 -12 8 -17 8 -5 1 -15 2 -21 3 -8 1 -6 7 6 16 19 14
41 11 31 -5 -8 -13 27 -22 39 -10 8 8 5 9 -9 4 -11 -4 -17 -4 -13 1 10 10 -19
38 -32 30 -5 -3 -10 -1 -10 5 0 6 -6 8 -12 4 -7 -4 -4 2 6 15 15 16 22 19 29
9 6 -9 7 -6 4 10 -3 12 -3 22 0 22 3 0 50 -36 106 -81z m3813 26 c114 -20 242
-64 370 -125 136 -66 159 -86 184 -167 24 -77 24 -83 6 -58 -13 18 -14 18 -9
-8 3 -15 12 -27 19 -27 20 0 17 -17 -3 -24 -15 -6 -15 -9 -3 -16 12 -7 11 -12
-4 -29 -17 -19 -21 -19 -47 -5 -23 11 -29 12 -30 2 0 -7 -4 -4 -9 7 -7 18 -9
18 -15 3 -6 -16 -9 -16 -31 -1 -14 9 -22 18 -20 21 3 3 12 -1 21 -8 26 -22 25
-6 -1 17 -13 12 -24 18 -24 13 0 -5 -11 2 -24 15 -32 32 -189 106 -296 139
-104 33 -282 63 -388 66 -7 0 -11 4 -8 9 3 5 -1 14 -9 21 -10 9 -18 9 -32 0
-17 -11 -17 -11 0 -6 26 8 41 -3 26 -20 -13 -16 -33 -19 -23 -3 5 8 1 8 -14 0
-46 -25 -92 3 -75 45 6 16 5 17 -9 4 -8 -8 -13 -21 -10 -29 3 -9 1 -12 -6 -7
-7 4 -12 2 -12 -3 0 -6 -5 -11 -11 -11 -8 0 -7 5 2 16 11 14 11 18 -2 28 -9 6
-18 18 -21 25 -3 12 -6 12 -11 -2 -4 -10 -2 -17 6 -17 10 -1 -48 -30 -59 -30
-2 0 0 8 3 18 6 15 5 16 -12 2 -17 -14 -17 -13 -10 9 5 16 4 21 -4 17 -15 -10
-14 -43 2 -49 9 -4 9 -6 -1 -6 -14 -1 -35 46 -27 60 4 5 -1 6 -10 3 -11 -5
-13 -10 -5 -19 8 -9 8 -15 0 -20 -6 -4 -13 7 -17 25 -4 22 -8 28 -14 18 -5 -8
-9 7 -9 39 0 52 0 52 35 59 135 25 517 30 641 9z m-3984 -87 c-8 -8 -9 -4 -5
13 4 13 8 18 11 10 2 -7 -1 -18 -6 -23z m3171 -5 c-3 -21 -10 -39 -15 -41 -4
-2 -8 -11 -8 -20 0 -13 2 -14 9 -4 5 9 8 3 7 -17 -1 -28 -2 -29 -13 -14 -11
14 -13 14 -13 2 0 -8 5 -20 11 -26 18 -18 1 -35 -21 -23 -13 7 -21 7 -26 -2
-4 -7 -3 -8 4 -4 20 12 14 -19 -9 -48 -18 -23 -19 -27 -4 -32 14 -6 13 -8 -5
-21 -11 -8 -24 -11 -30 -8 -6 3 -7 -1 -4 -9 3 -9 11 -16 18 -16 6 0 2 -7 -8
-15 -11 -8 -14 -15 -8 -15 19 0 -9 -40 -28 -40 -12 -1 -11 -3 3 -14 11 -9 14
-15 7 -18 -7 -2 -13 -15 -13 -30 -1 -14 -7 -24 -13 -21 -6 2 -14 -7 -16 -21
-3 -14 -1 -26 3 -26 5 0 9 -5 9 -11 0 -5 -4 -7 -10 -4 -6 4 -8 -68 -5 -210 5
-247 0 -284 -52 -345 -46 -53 -81 -70 -145 -70 -80 0 -121 16 -169 64 -49 48
-102 115 -81 102 11 -7 11 -4 0 13 -18 29 -28 26 -29 -6 0 -24 -2 -25 -8 -9
-9 24 23 120 48 145 17 16 71 45 104 55 12 4 17 16 17 43 1 36 25 250 33 283
13 56 44 135 62 154 11 13 21 30 23 37 2 8 12 21 22 31 11 9 20 22 20 30 0 21
70 91 133 133 47 31 169 84 199 85 4 0 4 -17 1 -37z m327 -57 c0 -3 -4 -8 -10
-11 -5 -3 -10 -1 -10 4 0 6 5 11 10 11 6 0 10 -2 10 -4z m-42 -20 c-10 -7 -14
-17 -10 -21 4 -5 1 -5 -6 -1 -10 6 -10 11 -1 22 6 8 17 14 23 14 6 0 3 -7 -6
-14z m-4288 -1107 l0 -1089 -65 0 -65 0 0 1089 0 1090 33 3 c17 2 47 1 65 -1
l32 -3 0 -1089z m6372 1091 c20 0 20 -6 17 -1090 l-3 -1090 -62 0 c-43 0 -63
4 -67 14 -3 7 -6 497 -7 1089 l-1 1076 38 4 c21 2 44 2 51 0 8 -2 23 -3 34 -3z
m-4679 -138 c-7 -19 -10 -19 -28 -5 -18 14 -18 15 -2 9 14 -4 20 0 25 16 3 12
7 18 9 12 2 -6 0 -20 -4 -32z m2940 -12 c136 -24 324 -101 421 -171 22 -16 45
-29 52 -29 21 0 168 -125 234 -200 36 -41 77 -87 93 -104 27 -30 27 -32 27
-168 0 -136 0 -138 -20 -126 -11 7 -23 20 -25 29 -3 9 -22 34 -43 56 -100 105
-143 149 -154 158 -123 101 -169 135 -184 135 -9 0 -14 3 -11 6 13 13 -145
110 -219 134 -22 7 -49 19 -61 27 -12 8 -24 14 -27 14 -6 0 -24 5 -66 20 -26
9 -61 16 -122 26 -21 3 -38 9 -38 14 0 5 -7 6 -15 3 -16 -7 -18 -3 -9 20 5 12
11 13 27 5 22 -10 22 -10 2 6 -18 14 -21 14 -33 -2 -13 -18 -68 -30 -57 -13 3
5 1 11 -5 15 -5 3 -10 12 -10 18 0 7 7 3 15 -7 8 -11 15 -18 16 -15 0 2 2 12
4 22 2 9 0 15 -5 12 -12 -8 -41 6 -34 16 3 5 -2 9 -11 9 -9 0 -14 4 -10 9 3 5
2 12 -3 15 -4 2 -9 -6 -10 -20 -1 -15 3 -24 13 -24 8 0 15 -4 15 -10 0 -5 -8
-10 -17 -10 -14 0 -15 -2 -4 -9 9 -6 6 -8 -12 -8 -23 0 -24 1 -11 14 13 14 13
17 -3 28 -12 9 -23 10 -35 4 -14 -7 -16 -6 -12 6 4 8 11 15 17 15 6 0 7 3 4 7
-4 3 -16 -2 -27 -12 -13 -12 -20 -14 -20 -5 0 10 -4 9 -17 -1 -15 -12 -16 -12
-9 5 7 20 6 20 -14 1 -20 -19 -21 -19 -14 1 7 17 6 17 -9 5 -15 -12 -21 -9
-18 12 0 4 -3 7 -9 7 -13 0 -13 -23 0 -38 5 -7 3 -6 -6 2 -25 21 -6 68 31 78
16 4 34 3 40 -2 6 -5 17 -5 25 0 8 6 11 10 5 11 -5 1 10 5 35 8 80 12 269 12
333 1z m-3839 -65 c183 -39 295 -159 311 -332 6 -61 5 -73 -8 -73 -10 0 -13
-7 -10 -19 3 -10 0 -22 -6 -25 -6 -4 -11 -16 -11 -28 0 -14 -5 -18 -15 -14 -8
3 -15 0 -15 -7 0 -8 -4 -6 -10 3 -15 23 -12 29 10 25 11 -2 18 0 15 6 -4 5
-13 9 -21 9 -17 0 -19 16 -1 23 9 4 9 6 0 6 -6 1 -18 -8 -26 -19 -8 -11 -17
-17 -22 -12 -4 4 -5 -3 -1 -14 4 -15 2 -24 -8 -27 -10 -4 -13 -1 -10 7 3 7 -2
12 -13 12 -21 -1 -30 17 -12 23 7 2 9 -1 5 -8 -4 -6 -3 -11 3 -11 16 0 22 17
8 28 -13 10 -72 -20 -60 -31 3 -4 1 -7 -5 -7 -6 0 -10 9 -9 19 0 11 5 17 9 15
4 -3 5 1 3 8 -3 8 -14 14 -25 14 -13 0 -16 -4 -10 -10 13 -13 13 -56 1 -56 -5
0 -7 9 -4 20 4 14 0 20 -12 20 -9 0 -23 7 -32 15 -8 9 -23 13 -33 10 -10 -3
-25 1 -33 9 -8 8 -17 13 -20 10 -3 -3 -14 -1 -24 5 -16 9 -16 10 7 11 22 1 23
2 6 9 -11 4 -23 16 -27 27 -6 16 -8 14 -8 -8 -1 -20 -6 -28 -18 -27 -11 0 -13
3 -5 6 6 2 12 11 12 20 0 21 -28 46 -42 37 -10 -6 -11 -4 0 7 15 16 16 33 1
23 -7 -4 -10 -1 -7 7 3 8 11 13 17 11 7 -1 9 2 6 8 -4 6 -10 9 -13 6 -3 -3
-12 0 -21 7 -13 10 -14 10 -6 -3 9 -13 10 -22 6 -54 -1 -11 -30 24 -31 37 0 5
6 5 13 1 10 -6 10 -4 0 7 -20 21 -15 64 18 173 17 56 33 104 36 109 7 11 72 8
147 -8z m4528 -82 c-10 -4 -10 -8 0 -21 10 -12 7 -12 -14 2 -16 10 -28 19 -28
20 0 1 12 2 28 3 15 1 21 -1 14 -4z m1355 -76 c2 -3 5 -828 4 -1203 l-1 -302
-35 0 -35 0 -2 307 c-6 729 -3 1196 7 1204 8 6 54 1 62 -6z m-4587 -31 c-7 -7
-13 -7 -20 0 -6 6 -3 10 10 10 13 0 16 -4 10 -10z m2163 -57 c24 -6 35 -14 31
-21 -5 -8 -2 -9 9 -5 13 5 17 1 17 -19 0 -14 4 -23 10 -19 5 3 7 13 4 23 -5
14 -4 14 4 3 6 -8 18 -16 27 -17 24 -4 30 -13 17 -26 -9 -9 -12 -9 -12 1 0 7
-4 10 -9 7 -13 -8 -7 -36 10 -47 11 -7 11 -9 -3 -9 -10 0 -19 5 -19 10 -1 6
-2 14 -3 19 -2 20 -14 21 -19 1 -3 -11 -1 -20 4 -20 18 0 8 -21 -13 -30 -14
-5 -17 -9 -8 -10 12 0 13 -2 1 -9 -7 -5 -13 -20 -13 -35 0 -14 -4 -23 -9 -20
-5 3 -6 16 -3 30 4 17 1 26 -10 30 -22 8 -33 -3 -18 -18 9 -9 12 -9 12 2 0 7
2 11 5 8 3 -3 3 -13 -1 -22 -5 -13 -9 -14 -20 -5 -8 6 -14 18 -14 25 0 8 -5
14 -11 14 -6 0 -9 -6 -6 -14 6 -15 -14 -38 -29 -35 -21 4 -24 -2 -10 -17 9 -8
16 -22 16 -30 0 -10 -9 -6 -27 13 -26 25 -28 35 -34 123 -3 52 -3 106 -1 119
4 21 8 23 46 17 22 -4 58 -11 79 -17z m-3654 -81 c12 -15 11 -18 -3 -18 -10 0
-16 8 -16 22 0 12 1 19 3 17 1 -2 9 -12 16 -21z m21 -38 c0 -5 -4 -10 -9 -10
-6 0 -13 5 -16 10 -3 6 1 10 9 10 9 0 16 -4 16 -10z m3727 -56 c-9 -9 -28 6
-21 18 4 6 10 6 17 -1 6 -6 8 -13 4 -17z m-3680 10 c-3 -3 -12 -4 -19 -1 -8 3
-5 6 6 6 11 1 17 -2 13 -5z m6303 -504 l0 -510 -39 0 -38 0 -2 510 -2 510 41
0 40 0 0 -510z m-6234 483 c-10 -11 -37 -12 -30 -2 3 5 12 9 21 9 9 0 13 -3 9
-7z m4024 -92 c101 -84 282 -265 366 -367 131 -159 244 -322 244 -352 0 -15
-13 -55 -30 -90 -26 -55 -32 -62 -44 -49 -14 14 -42 46 -141 162 -151 178
-256 288 -375 395 -46 41 -95 86 -109 100 -14 13 -28 23 -29 21 -8 -7 -90 73
-85 82 3 6 1 7 -4 4 -6 -4 -16 0 -23 8 -10 12 -6 23 17 59 27 44 43 57 43 35
0 -5 5 -7 11 -3 8 5 8 9 -1 14 -10 6 -7 17 10 44 l22 37 37 -27 c20 -15 61
-48 91 -73z m-4070 64 c0 -8 -4 -15 -8 -15 -5 0 -9 7 -9 15 0 8 4 15 9 15 4 0
8 -7 8 -15z m80 5 c0 -5 -7 -10 -15 -10 -8 0 -15 5 -15 10 0 6 7 10 15 10 8 0
15 -4 15 -10z m37 -3 c-4 -10 2 -13 21 -10 20 3 23 2 13 -5 -8 -6 -25 -8 -38
-6 -24 5 -32 -11 -10 -19 9 -4 9 -6 0 -6 -19 -2 -25 17 -11 39 14 22 33 28 25
7z m3423 -3 c0 -9 6 -14 13 -11 7 3 13 -3 14 -12 1 -10 -5 -18 -12 -18 -8 0
-12 4 -9 9 3 4 1 8 -4 8 -5 0 -12 9 -15 20 -3 11 -1 20 4 20 5 0 9 -7 9 -16z
m-7 -48 c4 -10 1 -13 -8 -9 -8 3 -12 9 -9 14 7 12 11 11 17 -5z m-53 -6 c0 -5
-5 -10 -11 -10 -5 0 -7 5 -4 10 3 6 8 10 11 10 2 0 4 -4 4 -10z m1030 -12 c0
-13 -23 -5 -28 10 -2 7 2 10 12 6 9 -3 16 -11 16 -16z m-4170 -18 c0 -5 -2
-10 -4 -10 -3 0 -8 5 -11 10 -3 6 -1 10 4 10 6 0 11 -4 11 -10z m2827 -112
c-3 -8 -6 -5 -6 6 -1 11 2 17 5 13 3 -3 4 -12 1 -19z m-467 -42 c0 -11 -19
-15 -25 -6 -3 5 1 10 9 10 9 0 16 -2 16 -4z m2014 -32 c3 -8 2 -12 -4 -9 -6 3
-10 10 -10 16 0 14 7 11 14 -7z m-2537 -14 c68 -19 174 -72 181 -91 2 -5 10
-9 18 -9 8 0 89 -76 182 -169 94 -95 184 -177 207 -188 83 -41 145 -56 209
-49 121 12 215 64 340 187 l81 79 18 -38 c11 -20 39 -72 63 -115 l45 -77 -66
-82 c-166 -207 -316 -280 -513 -250 -101 16 -220 76 -320 161 -89 76 -90 77
-161 162 -86 100 -160 165 -235 205 -58 31 -81 37 -150 41 -154 10 -236 -22
-426 -167 -100 -76 -213 -126 -245 -107 -13 7 -16 6 -11 -2 4 -6 1 -11 -8 -11
-8 0 -23 -3 -33 -6 -15 -5 -15 -4 -3 5 8 5 12 13 8 16 -3 3 -13 -1 -22 -10
-10 -10 -16 -12 -16 -4 0 8 -4 8 -15 -1 -9 -7 -19 -10 -22 -6 -4 4 -1 11 7 16
8 6 12 10 8 10 -3 0 -15 3 -25 6 -13 4 -14 3 -5 -4 11 -7 11 -10 -2 -15 -9 -4
-16 -1 -16 6 0 8 -4 6 -10 -3 -5 -8 -10 -10 -10 -4 0 14 -33 14 -43 0 -6 -7
-7 -4 -3 7 5 14 -5 23 -18 15 -2 -2 -13 5 -24 15 -15 14 -21 15 -25 5 -4 -8
-6 -7 -6 5 -1 9 -4 17 -8 17 -5 0 -21 12 -38 26 -16 14 -41 36 -55 48 -54 45
-130 202 -130 266 0 36 10 37 47 6 45 -38 181 -117 247 -144 84 -34 219 -37
288 -5 47 21 103 60 143 97 49 46 227 143 279 152 11 2 46 7 76 12 89 15 141
13 217 -8z m-2527 -60 c0 -30 -4 -50 -11 -50 -8 0 -8 -4 0 -14 12 -14 5 -46
-9 -46 -19 0 -41 13 -32 19 14 9 27 55 13 47 -6 -4 -11 0 -11 11 0 15 -2 16
-10 3 -5 -8 -10 -10 -10 -4 0 5 -18 11 -41 13 -28 1 -39 -2 -34 -9 4 -7 18
-10 31 -7 13 2 24 1 24 -3 0 -4 9 -10 20 -13 11 -3 20 -11 19 -19 0 -10 -2
-10 -6 0 -2 6 -9 12 -14 12 -4 0 -5 -7 -2 -17 5 -12 3 -14 -8 -8 -12 8 -12 6
0 -8 7 -9 10 -18 5 -18 -5 -1 -25 -3 -44 -5 -30 -2 -32 -2 -12 7 13 5 29 6 35
3 7 -3 3 3 -9 13 -11 10 -19 25 -16 33 3 9 -2 7 -13 -5 -9 -11 -14 -15 -11 -9
3 7 -3 14 -14 17 -16 4 -20 0 -21 -21 -1 -20 -3 -22 -6 -8 -4 15 -7 16 -14 5
-7 -11 -9 -9 -9 8 0 12 -6 24 -12 27 -10 5 -10 7 0 12 6 3 12 10 12 15 0 6 -4
7 -10 4 -6 -4 -10 8 -10 29 l0 36 115 0 115 0 0 -50z m650 29 c44 -9 91 -28
146 -60 122 -72 198 -168 254 -319 31 -82 32 -90 27 -205 -5 -145 -23 -199
-87 -264 -91 -92 -150 -121 -266 -128 -107 -7 -137 7 -207 101 -137 182 -254
449 -288 656 l-13 74 50 44 c61 56 153 100 230 110 64 9 61 9 154 -9z m3528
-131 c169 -172 261 -276 369 -421 82 -111 103 -144 81 -131 -8 5 -8 1 3 -12
19 -24 59 -117 59 -139 0 -13 -6 -15 -29 -10 -34 7 -42 -1 -44 -54 -1 -23 -5
-37 -12 -34 -10 5 -58 61 -163 192 -97 121 -186 225 -282 331 -114 126 -107
119 -147 163 -18 20 -33 41 -33 47 0 5 -9 10 -21 10 -11 0 -17 5 -14 10 3 6 2
10 -4 10 -6 0 -8 7 -5 15 4 11 2 13 -9 9 -10 -3 -20 3 -27 16 -11 20 -6 28 51
86 35 35 66 64 70 64 3 0 74 -69 157 -152z m1402 112 c0 -27 -7 -47 -21 -61
-20 -20 -20 -21 -2 -36 10 -8 12 -11 4 -7 -11 5 -13 3 -8 -10 5 -12 3 -16 -5
-14 -7 3 -13 20 -13 39 -1 19 -4 40 -9 47 -10 16 -36 15 -36 -2 0 -8 7 -13 16
-12 9 0 19 -5 22 -13 3 -8 0 -11 -7 -7 -12 8 -15 -6 -4 -18 4 -3 7 -15 8 -25
2 -20 -18 -22 -37 -3 -16 16 -31 15 -22 0 4 -7 -8 1 -26 17 -32 29 -33 20 -1
-20 15 -18 15 -19 -1 -6 -13 10 -18 10 -18 2 0 -7 -5 -9 -11 -5 -8 4 -7 9 2
15 11 7 11 9 1 9 -8 0 -10 5 -6 12 5 7 2 9 -8 5 -9 -3 -21 0 -28 6 -10 10 -11
6 -8 -15 3 -16 1 -28 -4 -28 -5 0 -6 -4 -3 -10 3 -6 -1 -7 -10 -3 -13 5 -14 7
-3 14 10 7 10 9 -2 9 -9 0 -11 3 -5 8 15 11 17 42 3 43 -7 1 -2 4 12 8 24 7
90 -14 90 -29 0 -3 9 -6 20 -6 15 0 19 5 14 16 -3 8 -8 23 -11 32 -3 9 -12 16
-21 16 -10 0 -27 3 -40 6 -13 3 -20 1 -17 -5 4 -5 11 -6 17 -3 6 4 8 3 5 -3
-4 -5 -20 -10 -37 -11 -29 -1 -30 1 -30 44 l0 44 120 0 120 0 0 -40z m1384 24
c9 -25 7 -56 -4 -49 -8 5 -13 -7 -12 -35 0 -3 3 -16 7 -30 5 -19 4 -21 -4 -10
-9 13 -11 13 -11 -2 0 -9 5 -20 10 -23 21 -13 9 -25 -12 -13 -40 22 -60 18
-40 -8 4 -5 0 -2 -9 8 -15 16 -17 16 -33 0 -16 -16 -17 -16 -10 1 3 9 10 17
16 17 5 0 6 5 2 12 -5 7 -11 5 -21 -7 -7 -11 -13 -15 -13 -11 0 5 -11 1 -25
-8 -14 -9 -25 -14 -25 -11 0 3 0 8 0 13 0 4 3 7 8 7 21 2 52 18 52 27 0 5 -8
7 -17 4 -10 -4 -14 -4 -10 0 9 9 -13 35 -23 29 -5 -3 -12 0 -16 6 -4 8 -3 9 4
5 8 -5 10 -1 6 11 -5 16 -4 16 10 -1 9 -11 16 -14 16 -8 0 10 3 10 14 0 8 -8
10 -15 4 -19 -5 -4 -3 -9 5 -12 18 -7 55 18 44 29 -4 4 -7 2 -7 -4 0 -7 -5
-12 -11 -12 -5 0 -7 5 -3 12 4 6 3 8 -4 4 -6 -3 -13 -2 -17 4 -4 6 4 10 19 10
14 0 28 5 31 10 4 7 -2 9 -17 5 -46 -12 -63 -12 -75 -3 -13 10 -22 -1 -29 -37
-3 -19 -1 -23 15 -20 25 5 18 -16 -10 -33 -12 -8 -18 -9 -15 -3 4 5 2 12 -2
15 -5 3 -8 15 -7 28 1 13 -3 26 -9 30 -8 5 -7 8 2 8 6 0 12 5 12 11 0 5 -4 7
-10 4 -6 -4 -10 8 -10 29 l0 36 114 0 c95 0 115 -3 120 -16z m-1510 -80 c6
-15 -20 -12 -36 4 -8 8 -6 11 10 9 12 0 24 -7 26 -13z m-4031 -349 c-3 -9 -8
-14 -10 -11 -3 3 -2 9 2 15 9 16 15 13 8 -4z m998 -52 c1 -17 2 -17 6 0 7 28
21 19 15 -10 -5 -26 -36 -58 -56 -58 -14 0 -19 -22 -7 -30 7 -4 8 1 4 12 -3
10 -2 15 2 10 5 -4 16 0 26 9 18 16 44 11 34 -7 -4 -5 -1 -9 5 -9 6 0 8 11 5
28 -2 15 -2 35 1 45 5 15 7 15 20 3 8 -8 11 -22 8 -30 -5 -13 -2 -15 12 -9 16
6 17 5 4 -9 -8 -9 -18 -14 -21 -12 -3 2 -11 -12 -16 -31 -9 -26 -8 -35 3 -39
7 -3 18 3 24 12 9 14 10 12 4 -8 -8 -30 1 -23 -64 -55 -50 -25 -137 -80 -150
-94 -3 -3 -27 -24 -55 -46 -27 -22 -68 -57 -90 -77 -45 -42 -152 -101 -205
-113 -64 -15 -74 -16 -177 -18 -57 -2 -103 1 -103 6 0 5 -43 8 -97 5 -75 -3
-109 -9 -144 -26 -66 -32 -147 -110 -199 -191 -25 -38 -47 -70 -50 -70 -5 0
-97 117 -138 176 l-23 34 43 62 c24 34 63 95 87 135 50 86 118 157 175 183 54
25 62 24 137 -10 271 -123 445 -101 642 79 128 116 220 169 300 170 28 0 37
-4 38 -17z m1615 -203 c32 -47 64 -91 72 -99 7 -8 31 -38 53 -67 21 -29 43
-55 49 -59 6 -3 7 -11 4 -17 -4 -7 -2 -8 4 -4 6 3 16 -2 21 -13 14 -25 14 -34
1 -26 -14 9 -13 -8 2 -23 23 -23 -27 -213 -52 -197 -6 4 -10 0 -10 -7 0 -7
-11 -18 -25 -25 -14 -6 -25 -7 -25 -2 0 5 3 9 8 9 4 0 13 12 20 28 l12 27 -26
-28 -27 -29 -51 51 c-28 28 -59 51 -67 51 -8 0 -28 -14 -44 -31 l-30 -30 33
-63 c19 -37 30 -70 26 -79 -3 -10 -2 -17 3 -17 5 0 9 -9 10 -19 2 -20 -22 -35
-38 -25 -19 11 -8 -14 12 -27 13 -9 18 -20 14 -31 -8 -19 -25 -25 -25 -8 0 6
5 10 10 10 6 0 10 5 10 11 0 5 -5 7 -11 3 -6 -3 -15 0 -20 7 -5 9 -7 -5 -4
-36 3 -32 2 -43 -3 -31 -5 12 -11 15 -15 9 -4 -6 -19 -8 -34 -5 -16 2 -25 2
-21 -2 3 -4 12 -8 20 -9 7 -2 14 -7 15 -12 1 -5 10 -12 20 -16 15 -6 15 -8 2
-8 -9 -1 -22 6 -29 14 -7 9 -20 13 -28 10 -12 -4 -13 1 -8 26 5 29 4 30 -11
18 -15 -12 -16 -12 -10 4 3 9 2 17 -2 17 -5 0 -11 -5 -13 -11 -2 -5 -23 25
-47 68 -49 88 -115 191 -178 277 -61 82 -58 100 25 183 37 38 99 98 137 134
39 37 99 96 134 134 35 37 66 63 70 58 4 -4 34 -46 67 -93z m-986 -22 c0 -5
-2 -8 -5 -8 -9 0 -45 34 -45 43 0 10 49 -25 50 -35z m-200 -119 c20 -24 24
-36 15 -36 -8 0 -12 4 -9 9 3 4 0 8 -5 8 -16 0 -13 -20 3 -26 8 -3 12 -12 10
-19 -3 -7 0 -16 5 -20 6 -3 9 -10 6 -15 -3 -4 5 -6 17 -4 20 4 20 3 -3 -8 -18
-9 -25 -20 -24 -36 1 -16 -6 -27 -21 -34 -15 -7 -21 -18 -19 -35 1 -14 -2 -22
-9 -20 -6 2 -10 12 -8 22 2 10 -1 14 -7 10 -15 -9 -14 -21 5 -39 8 -9 12 -16
7 -16 -5 0 -14 5 -20 11 -8 8 -16 6 -31 -9 -14 -14 -17 -23 -9 -31 18 -18 -2
-26 -36 -13 l-32 12 33 -31 c27 -25 31 -34 21 -45 -7 -8 -18 -13 -26 -10 -8 3
-16 -1 -19 -8 -3 -8 -13 -12 -23 -9 -14 3 -17 -1 -16 -19 3 -31 -11 -47 -35
-41 -11 3 -20 0 -20 -6 0 -6 -8 -11 -17 -11 -15 0 -16 -2 -3 -10 12 -7 12 -12
2 -22 -10 -10 -15 -10 -23 2 -9 13 -10 13 -8 0 2 -8 -38 -56 -87 -106 -93 -95
-161 -205 -199 -322 -25 -78 -26 -264 -1 -364 20 -81 36 -93 36 -29 0 68 51
243 100 346 60 126 135 209 303 336 67 51 146 116 176 144 51 48 151 167 198
236 l22 33 30 -65 c40 -88 54 -146 46 -188 -8 -44 -65 -168 -91 -201 -61 -75
-108 -117 -230 -204 -75 -54 -150 -114 -168 -134 -17 -19 -36 -40 -41 -46 -6
-6 -28 -37 -48 -69 -69 -104 -107 -254 -107 -420 0 -46 -2 -86 -5 -89 -6 -6
-115 98 -115 109 0 5 -14 23 -30 42 -38 43 -74 121 -90 193 -7 32 -17 55 -21
52 -4 -2 -6 17 -5 43 2 27 2 40 -1 31 -7 -26 -25 -22 -23 5 5 56 1 69 -20 62
-13 -4 -20 -2 -20 7 0 10 -3 9 -10 -2 -5 -8 -10 -19 -10 -25 0 -5 5 -3 10 5 6
9 10 10 10 3 0 -6 -5 -15 -11 -18 -6 -4 -8 -13 -5 -21 3 -7 1 -16 -4 -19 -6
-4 -10 -15 -10 -26 0 -11 -4 -18 -9 -14 -5 3 -13 -4 -16 -16 -4 -12 -12 -18
-21 -15 -8 3 -14 1 -14 -4 0 -6 5 -10 10 -10 6 0 10 -7 10 -16 0 -14 -2 -14
-15 0 -17 16 -20 46 -5 46 5 0 7 7 3 16 -5 14 -8 13 -20 -7 l-14 -24 7 25 c7
27 23 42 36 34 4 -3 8 0 8 6 0 7 -8 9 -22 5 -16 -6 -20 -4 -15 8 3 9 1 18 -6
20 -9 3 -9 7 0 18 10 12 8 18 -7 32 -11 9 -20 13 -20 7 0 -5 8 -14 18 -19 16
-10 16 -10 -1 -11 -11 0 -15 -4 -11 -12 5 -8 -2 -9 -24 -5 -20 4 -34 1 -42 -8
-14 -17 -14 -17 17 -20 12 -1 20 2 17 6 -3 5 6 9 19 9 16 0 26 -7 30 -20 3
-11 1 -20 -5 -20 -5 0 -6 -4 -3 -10 3 -5 -1 -10 -9 -10 -9 0 -16 5 -16 11 0 5
-5 7 -11 4 -6 -5 -4 -11 6 -19 14 -10 14 -12 -7 -13 -12 -1 -24 -7 -26 -13 -2
-5 -8 -8 -13 -4 -5 3 -2 12 6 20 20 20 19 31 -4 39 -20 6 -37 48 -21 53 6 2 6
10 0 21 -16 31 -4 200 20 276 55 176 169 358 305 489 97 93 167 157 220 201
33 28 107 96 165 152 l105 103 33 -38 c19 -20 47 -53 62 -73z m64 -134 c-4 -8
-8 -15 -10 -15 -2 0 -4 7 -4 15 0 8 4 15 10 15 5 0 7 -7 4 -15z m-49 -65 c-3
-5 -12 -10 -18 -10 -7 0 -6 4 3 10 19 12 23 12 15 0z m742 -235 c26 -44 48
-83 48 -87 0 -3 3 -10 8 -14 4 -4 7 -12 7 -18 0 -6 -5 -4 -10 4 -6 10 -10 11
-10 3 0 -7 9 -22 20 -33 11 -11 17 -26 14 -35 -4 -9 0 -15 9 -15 10 0 13 -7
10 -20 -3 -11 -1 -20 4 -20 6 0 9 -11 8 -25 -2 -14 1 -25 7 -25 7 0 7 -5 -1
-13 -6 -8 -8 -17 -4 -20 3 -4 2 -12 -4 -19 -5 -7 -10 -24 -11 -37 0 -13 -5
-27 -10 -30 -5 -3 -12 -19 -16 -36 -4 -16 -9 -39 -12 -50 l-5 -20 16 20 17 20
-4 -20 c-2 -12 -13 -21 -26 -23 -18 -3 -22 -8 -17 -25 5 -17 4 -19 -4 -7 -10
13 -11 13 -12 0 0 -8 -5 -4 -9 10 l-8 25 -1 -27 c-1 -18 4 -28 13 -28 9 0 14
-9 13 -20 -1 -13 -6 -19 -15 -15 -10 3 -12 0 -8 -10 3 -8 1 -15 -4 -15 -6 0
-10 5 -10 11 0 5 -4 7 -10 4 -5 -3 -10 -1 -10 5 0 6 -7 10 -16 8 -8 -2 -14 -7
-14 -12 1 -5 -4 -12 -12 -17 -11 -7 -10 -10 1 -21 10 -10 12 -10 7 0 -4 6 -2
12 4 12 7 0 10 7 6 15 -8 21 1 19 32 -7 15 -11 20 -19 11 -15 -9 3 -22 -3 -29
-13 -8 -11 -18 -17 -22 -14 -5 3 -6 -7 -2 -22 5 -21 4 -25 -6 -19 -8 5 -11 4
-6 -3 3 -5 0 -12 -6 -15 -7 -2 -10 -8 -6 -12 8 -8 32 12 41 35 4 13 6 12 6 -1
1 -22 -35 -62 -48 -54 -6 3 -11 0 -11 -7 0 -9 -3 -9 -10 2 -8 12 -10 10 -10
-9 0 -16 -4 -21 -15 -17 -8 3 -14 2 -12 -3 1 -4 -14 -21 -33 -37 -19 -16 -59
-51 -88 -78 -29 -28 -65 -59 -79 -71 -15 -11 -42 -33 -60 -50 -18 -16 -52 -43
-74 -60 -23 -16 -81 -69 -130 -118 -77 -74 -93 -86 -114 -81 -15 4 -25 2 -25
-5 0 -6 7 -11 15 -11 9 0 12 -6 9 -15 -4 -8 -11 -12 -17 -8 -6 4 -8 0 -4 -9 3
-10 -3 -24 -15 -35 -21 -18 -21 -18 -14 2 13 33 17 62 4 33 -7 -16 -18 -28
-25 -28 -11 0 -11 5 -3 21 6 11 9 28 7 37 -4 13 -5 12 -6 -4 0 -12 -7 -27 -15
-33 -8 -7 -17 -24 -21 -38 l-6 -26 -29 34 c-40 46 -43 59 -25 109 18 50 18 53
5 45 -16 -10 -12 12 5 29 8 8 15 20 15 27 0 22 43 108 51 103 5 -3 6 2 2 11
-3 10 -2 20 3 24 5 3 23 24 39 46 54 73 172 180 314 286 204 153 286 278 306
469 3 30 8 73 11 95 2 22 5 45 5 50 0 31 -12 193 -16 212 -3 12 -2 29 2 39 5
15 15 9 54 -36 26 -30 69 -90 96 -135z m-807 161 c0 -2 -7 -6 -15 -10 -8 -3
-15 -1 -15 4 0 6 7 10 15 10 8 0 15 -2 15 -4z m-1182 -146 c46 -21 86 -62 116
-119 23 -44 29 -192 8 -213 -19 -19 -81 -14 -136 11 l-48 22 -24 -22 c-31 -30
-30 -47 6 -86 17 -18 30 -34 30 -37 0 -23 -117 27 -166 71 -44 39 -104 138
-104 171 2 77 56 158 132 196 63 31 125 34 186 6z m1562 -225 c0 -5 -5 -3 -10
5 -5 8 -10 20 -10 25 0 6 5 3 10 -5 5 -8 10 -19 10 -25z m795 -15 c3 -5 1 -10
-4 -10 -6 0 -11 5 -11 10 0 6 2 10 4 10 3 0 8 -4 11 -10z m-1035 -264 c0 -3
-4 -8 -10 -11 -5 -3 -10 -1 -10 4 0 6 5 11 10 11 6 0 10 -2 10 -4z m740 -76
c6 -11 8 -20 6 -20 -3 0 -10 9 -16 20 -6 11 -8 20 -6 20 3 0 10 -9 16 -20z
m-933 -6 c-3 -3 -12 -4 -19 -1 -8 3 -5 6 6 6 11 1 17 -2 13 -5z m28 -36 c-9
-6 -19 -7 -22 -4 -4 3 -1 6 6 6 7 0 9 4 6 10 -4 6 1 7 11 3 15 -6 15 -7 -1
-15z m-75 -32 c0 -3 -4 -8 -10 -11 -5 -3 -10 -1 -10 4 0 6 5 11 10 11 6 0 10
-2 10 -4z m-740 -126 c0 -5 -7 -10 -15 -10 -8 0 -15 5 -15 10 0 6 7 10 15 10
8 0 15 -4 15 -10z m644 -35 c-4 -8 -8 -15 -10 -15 -2 0 -4 7 -4 15 0 8 4 15
10 15 5 0 7 -7 4 -15z m-574 -14 c0 -6 -9 -9 -20 -8 -11 1 -20 5 -20 9 0 4 9
8 20 8 11 0 20 -4 20 -9z m587 -16 c-7 -13 -14 -20 -15 -14 -2 5 2 16 8 24 18
21 20 18 7 -10z m-510 -17 c-3 -8 -6 -5 -6 6 -1 11 2 17 5 13 3 -3 4 -12 1
-19z m30 -12 c-4 -9 -12 -16 -19 -16 -11 0 -11 2 0 8 7 5 10 16 6 28 -6 15 -4
17 6 7 7 -6 10 -19 7 -27z m-107 -2 c0 -19 16 -18 24 2 4 9 9 15 11 12 3 -3
-3 -20 -12 -39 -16 -31 -18 -32 -21 -11 -2 12 -12 28 -23 35 -25 15 -24 27 1
20 11 -3 20 -12 20 -19z m-51 -49 c0 -5 -4 -3 -9 5 -5 8 -9 22 -9 30 0 16 17
-16 18 -35z m41 -43 c0 -43 -15 -57 -28 -27 -17 37 -15 51 8 52 15 1 20 -4 20
-25z m537 -74 c-3 -7 -5 -2 -5 12 0 14 2 19 5 13 2 -7 2 -19 0 -25z m-10 -115
c-2 -16 -4 -3 -4 27 0 30 2 43 4 28 2 -16 2 -40 0 -55z m-20 5 c-2 -13 -4 -3
-4 22 0 25 2 35 4 23 2 -13 2 -33 0 -45z m-442 5 l18 -28 -21 19 c-12 11 -22
23 -22 28 0 14 7 9 25 -19z m135 -57 c0 -2 -9 -6 -20 -9 -11 -3 -20 -1 -20 4
0 5 9 9 20 9 11 0 20 -2 20 -4z m-72 -31 c-3 -3 -9 2 -12 12 -6 14 -5 15 5 6
7 -7 10 -15 7 -18z m152 -69 c0 -2 -7 -9 -15 -16 -13 -11 -14 -10 -9 4 5 14
24 23 24 12z m-29 -53 c13 -16 12 -17 -3 -4 -17 13 -22 21 -14 21 2 0 10 -8
17 -17z m129 -125 c0 -5 -13 3 -30 19 -16 15 -30 29 -30 31 0 2 14 -6 30 -18
17 -12 30 -26 30 -32z m35 -26 c-3 -3 -11 0 -18 7 -9 10 -8 11 6 5 10 -3 15
-9 12 -12z m30 -22 c3 -6 -1 -7 -9 -4 -18 7 -21 14 -7 14 6 0 13 -4 16 -10z"/>
<path d="M5172 8658 c-15 -15 -15 -28 -1 -28 5 0 7 5 4 10 -9 14 8 12 25 -2
12 -11 12 -10 0 7 -8 11 -15 21 -15 22 -1 2 -7 -3 -13 -9z"/>
<path d="M5220 8620 c0 -5 5 -10 11 -10 5 0 7 5 4 10 -3 6 -8 10 -11 10 -2 0
-4 -4 -4 -10z"/>
<path d="M5194 8613 c4 -7 -4 -19 -19 -29 -14 -9 -25 -21 -25 -27 0 -5 8 -3
19 7 10 9 25 14 34 10 19 -7 17 20 -3 39 -9 9 -11 9 -6 0z"/>
<path d="M5251 8551 c-8 -5 -9 -11 -3 -15 5 -3 12 1 16 9 6 17 6 18 -13 6z"/>
<path d="M5265 8519 c-4 -6 -4 -13 -1 -16 3 -4 6 -1 6 6 0 7 5 9 12 5 7 -4 8
-3 4 4 -9 15 -13 15 -21 1z"/>
<path d="M5238 8515 c-10 -16 19 -48 37 -42 22 9 19 30 -4 22 -14 -4 -20 -1
-23 12 -2 10 -6 13 -10 8z"/>
<path d="M5615 8639 c-11 -16 -1 -19 13 -3 7 8 8 14 3 14 -5 0 -13 -5 -16 -11z"/>
<path d="M5611 8574 c0 -11 3 -14 6 -6 3 7 2 16 -1 19 -3 4 -6 -2 -5 -13z"/>
<path d="M4395 7300 c-3 -5 -1 -10 4 -10 6 0 11 5 11 10 0 6 -2 10 -4 10 -3 0
-8 -4 -11 -10z"/>
<path d="M4430 7270 c0 -5 5 -10 11 -10 5 0 7 5 4 10 -3 6 -8 10 -11 10 -2 0
-4 -4 -4 -10z"/>
<path d="M4460 7210 c-8 -5 -18 -6 -24 -3 -5 3 -6 1 -2 -6 4 -6 16 -9 27 -6
24 8 25 -3 2 -22 -10 -8 -13 -12 -6 -9 6 4 14 2 18 -4 10 -17 28 -11 21 7 -4
9 -2 19 3 23 6 3 2 11 -8 17 -10 6 -24 8 -31 3z"/>
<path d="M4430 7142 c0 -5 11 -12 25 -15 16 -3 24 0 22 7 -4 14 -47 21 -47 8z"/>
<path d="M6108 7943 c7 -3 16 -2 19 1 4 3 -2 6 -13 5 -11 0 -14 -3 -6 -6z"/>
<path d="M5036 6743 c-6 -14 -5 -15 5 -6 7 7 10 15 7 18 -3 3 -9 -2 -12 -12z"/>
<path d="M4963 6715 c0 -8 4 -15 8 -15 4 0 9 7 13 15 3 9 0 15 -8 15 -7 0 -13
-7 -13 -15z"/>
<path d="M5520 6780 c0 -5 5 -10 11 -10 5 0 7 5 4 10 -3 6 -8 10 -11 10 -2 0
-4 -4 -4 -10z"/>
<path d="M5550 6779 c0 -9 7 -22 15 -29 8 -7 15 -10 15 -7 0 3 3 13 7 23 5 12
3 15 -6 9 -8 -4 -17 -2 -22 6 -7 11 -9 11 -9 -2z"/>
<path d="M5731 6768 c0 -13 3 -17 6 -10 2 6 10 9 16 5 7 -4 6 1 -2 10 -18 22
-21 21 -20 -5z"/>
<path d="M6417 6766 c-4 -10 -5 -21 -2 -24 9 -9 17 6 13 25 -3 17 -4 17 -11
-1z"/>
<path d="M5641 6734 c0 -11 3 -14 6 -6 3 7 2 16 -1 19 -3 4 -6 -2 -5 -13z"/>
<path d="M5615 6730 c-3 -5 -1 -10 4 -10 6 0 11 5 11 10 0 6 -2 10 -4 10 -3 0
-8 -4 -11 -10z"/>
<path d="M3966 6189 c4 -6 0 -15 -7 -21 -11 -7 -10 -8 5 -6 25 4 32 24 11 32
-10 4 -14 2 -9 -5z"/>
<path d="M4006 6173 c2 -7 -2 -13 -8 -13 -6 0 -9 -3 -5 -6 3 -3 16 2 29 11 13
10 16 15 6 12 -9 -3 -19 -3 -21 1 -2 4 -2 1 -1 -5z"/>
<path d="M4060 6140 c0 -5 5 -10 11 -10 5 0 7 5 4 10 -3 6 -8 10 -11 10 -2 0
-4 -4 -4 -10z"/>
<path d="M3997 6123 c-12 -12 -7 -21 16 -26 20 -5 20 -5 5 7 -10 7 -15 16 -11
19 3 4 4 7 1 7 -2 0 -8 -3 -11 -7z"/>
<path d="M4046 6107 c3 -10 9 -15 12 -12 3 3 0 11 -7 18 -10 9 -11 8 -5 -6z"/>
<path d="M4076 6103 c-6 -14 -5 -15 5 -6 7 7 10 15 7 18 -3 3 -9 -2 -12 -12z"/>
<path d="M4057 6063 c-10 -9 -9 -23 2 -23 5 0 11 7 15 15 5 15 -5 20 -17 8z"/>
<path d="M4130 6014 c0 -8 5 -12 10 -9 6 3 10 10 10 16 0 5 -4 9 -10 9 -5 0
-10 -7 -10 -16z"/>
<path d="M3188 6453 c7 -3 16 -2 19 1 4 3 -2 6 -13 5 -11 0 -14 -3 -6 -6z"/>
<path d="M3180 6430 c0 -5 5 -10 10 -10 6 0 10 5 10 10 0 6 -4 10 -10 10 -5 0
-10 -4 -10 -10z"/>
<path d="M3210 6425 c0 -8 -6 -15 -12 -15 -9 0 -8 -3 2 -10 12 -8 12 -10 -3
-16 -13 -5 -15 -10 -6 -20 6 -7 8 -19 4 -26 -4 -7 2 -2 13 12 12 14 24 21 29
16 4 -5 2 -11 -4 -13 -21 -8 -15 -22 7 -16 16 4 18 9 9 25 -8 14 -17 18 -32
14 -20 -5 -20 -4 3 15 17 13 19 17 6 13 -16 -6 -17 -4 -7 14 8 15 8 22 1 22
-5 0 -10 -7 -10 -15z"/>
<path d="M3135 6410 c-3 -5 -1 -10 4 -10 6 0 11 5 11 10 0 6 -2 10 -4 10 -3 0
-8 -4 -11 -10z"/>
<path d="M3257 6403 c-4 -3 -7 -11 -7 -17 0 -6 5 -5 12 2 6 6 9 14 7 17 -3 3
-9 2 -12 -2z"/>
<path d="M3273 6332 c-8 -5 -3 -11 12 -18 15 -7 28 -8 37 -2 10 8 9 9 -4 4
-10 -3 -21 1 -25 9 -5 8 -14 11 -20 7z"/>
<path d="M3332 6288 c-15 -15 -15 -28 -1 -28 5 0 8 4 5 9 -4 5 0 11 6 14 7 2
10 7 7 10 -3 4 -11 1 -17 -5z"/>
<path d="M3363 6213 c0 -8 6 -9 19 -2 10 5 18 11 18 12 0 2 -8 3 -18 3 -10 0
-19 -6 -19 -13z"/>
<path d="M3515 6170 c-3 -5 -1 -10 4 -10 6 0 11 5 11 10 0 6 -2 10 -4 10 -3 0
-8 -4 -11 -10z"/>
<path d="M3690 5881 c0 -6 4 -13 10 -16 6 -3 7 1 4 9 -7 18 -14 21 -14 7z"/>
<path d="M6642 6385 c14 -31 29 -32 54 -2 l19 22 -22 -18 c-23 -20 -43 -16
-43 9 0 8 -4 14 -10 14 -6 0 -5 -10 2 -25z"/>
<path d="M6480 6392 c0 -12 19 -26 26 -19 2 2 -2 10 -11 17 -9 8 -15 8 -15 2z"/>
<path d="M6560 6391 c0 -5 5 -13 10 -16 6 -3 10 -2 10 4 0 5 -4 13 -10 16 -5
3 -10 2 -10 -4z"/>
<path d="M6775 6349 c-4 -6 -5 -12 -2 -15 2 -3 7 2 10 11 7 17 1 20 -8 4z"/>
<path d="M6616 6335 c4 -8 11 -15 16 -15 6 0 5 6 -2 15 -7 8 -14 15 -16 15 -2
0 -1 -7 2 -15z"/>
<path d="M6650 6339 c0 -5 5 -7 10 -4 6 3 10 8 10 11 0 2 -4 4 -10 4 -5 0 -10
-5 -10 -11z"/>
<path d="M7564 6092 c-9 -5 -8 -11 2 -20 12 -11 14 -9 14 8 0 22 0 23 -16 12z"/>
<path d="M6150 6311 c0 -6 4 -13 10 -16 6 -3 7 1 4 9 -7 18 -14 21 -14 7z"/>
<path d="M6093 6211 c0 -11 5 -18 9 -15 4 3 5 11 1 19 -7 21 -12 19 -10 -4z"/>
<path d="M6065 6010 c3 -5 8 -10 11 -10 2 0 4 5 4 10 0 6 -5 10 -11 10 -5 0
-7 -4 -4 -10z"/>
<path d="M2126 4227 c3 -10 9 -15 12 -12 3 3 0 11 -7 18 -10 9 -11 8 -5 -6z"/>
<path d="M2110 4165 c0 -8 4 -15 10 -15 5 0 7 7 4 15 -4 8 -8 15 -10 15 -2 0
-4 -7 -4 -15z"/>
<path d="M8578 4153 c7 -3 16 -2 19 1 4 3 -2 6 -13 5 -11 0 -14 -3 -6 -6z"/>
<path d="M6712 6071 c-11 -7 -11 -9 0 -14 9 -3 15 1 15 9 0 8 -1 14 -1 14 -1
0 -7 -4 -14 -9z"/>
<path d="M6745 6050 c-3 -5 -1 -10 4 -10 6 0 11 5 11 10 0 6 -2 10 -4 10 -3 0
-8 -4 -11 -10z"/>
<path d="M6667 6031 c-4 -17 -3 -21 5 -13 5 5 8 16 6 23 -3 8 -7 3 -11 -10z"/>
<path d="M6776 6028 c3 -5 10 -6 15 -3 13 9 11 12 -6 12 -8 0 -12 -4 -9 -9z"/>
<path d="M3040 5700 c-6 -11 -8 -20 -6 -20 3 0 10 9 16 20 6 11 8 20 6 20 -3
0 -10 -9 -16 -20z"/>
<path d="M3005 5700 c-3 -5 -1 -10 4 -10 6 0 11 5 11 10 0 6 -2 10 -4 10 -3 0
-8 -4 -11 -10z"/>
<path d="M3217 5680 c-3 -11 -2 -20 3 -20 12 0 21 28 11 35 -5 2 -11 -4 -14
-15z"/>
<path d="M6503 5763 c23 -6 22 -20 -3 -33 -14 -7 -20 -7 -20 0 0 5 -4 10 -10
10 -5 0 -7 -7 -3 -16 3 -9 11 -13 22 -8 9 4 23 7 32 8 11 0 14 7 11 23 -3 16
-11 23 -26 22 -17 -1 -17 -2 -3 -6z"/>
<path d="M6780 5520 c0 -5 5 -10 11 -10 5 0 7 5 4 10 -3 6 -8 10 -11 10 -2 0
-4 -4 -4 -10z"/>
<path d="M6850 5489 c0 -5 5 -7 10 -4 6 3 10 8 10 11 0 2 -4 4 -10 4 -5 0 -10
-5 -10 -11z"/>
<path d="M6840 5446 c0 -2 7 -6 15 -10 8 -3 15 -1 15 4 0 6 -7 10 -15 10 -8 0
-15 -2 -15 -4z"/>
<path d="M2544 5222 c3 -5 0 -13 -6 -15 -9 -4 -10 -6 -1 -6 17 -1 25 16 12 25
-7 4 -9 3 -5 -4z"/>
<path d="M3143 5010 c-61 -37 -73 -108 -25 -160 39 -44 80 -49 121 -15 28 24
38 27 78 21 56 -7 74 4 63 42 -18 61 -34 82 -84 107 -60 30 -110 32 -153 5z"/>
<path d="M6542 5266 c7 -8 15 -12 17 -11 5 6 -10 25 -20 25 -5 0 -4 -6 3 -14z"/>
<path d="M6475 5221 c-3 -5 -1 -12 5 -16 5 -3 10 1 10 9 0 18 -6 21 -15 7z"/>
<path d="M7135 4590 c-7 -12 2 -30 16 -30 12 0 12 27 0 35 -5 3 -12 1 -16 -5z"/>
<path d="M8115 5269 c-4 -6 -5 -12 -2 -15 2 -3 7 2 10 11 7 17 1 20 -8 4z"/>
<path d="M8055 5220 c2 -26 25 -52 25 -28 0 22 -11 48 -19 48 -4 0 -7 -9 -6
-20z"/>
<path d="M9457 5248 c-16 -37 -13 -55 7 -55 8 0 12 6 9 13 -2 7 1 21 7 31 10
15 11 15 6 1 -3 -11 0 -15 7 -12 7 2 13 13 13 23 0 13 -6 17 -20 13 -13 -3
-17 -1 -12 6 4 7 5 12 2 12 -3 0 -12 -15 -19 -32z"/>
<path d="M9326 5208 c3 -5 10 -6 15 -3 13 9 11 12 -6 12 -8 0 -12 -4 -9 -9z"/>
<path d="M4957 4853 c-10 -9 -9 -23 1 -23 5 0 9 7 9 15 0 17 -1 18 -10 8z"/>
<path d="M4996 4735 c-3 -8 -1 -15 4 -15 6 0 10 7 10 15 0 8 -2 15 -4 15 -2 0
-6 -7 -10 -15z"/>
<path d="M4966 4721 c-4 -6 -2 -11 3 -11 6 0 11 -8 12 -17 0 -10 3 -13 5 -6 8
18 -11 49 -20 34z"/>
<path d="M4876 4667 c3 -10 9 -15 12 -12 3 3 0 11 -7 18 -10 9 -11 8 -5 -6z"/>
<path d="M4940 4669 c0 -5 5 -7 10 -4 6 3 10 8 10 11 0 2 -4 4 -10 4 -5 0 -10
-5 -10 -11z"/>
<path d="M4750 4524 c0 -8 5 -12 10 -9 6 4 8 11 5 16 -9 14 -15 11 -15 -7z"/>
<path d="M4723 4503 c4 -6 -6 -16 -21 -23 -15 -7 -22 -15 -15 -17 19 -7 58 33
42 42 -7 5 -10 4 -6 -2z"/>
<path d="M4540 4411 c0 -6 4 -13 10 -16 6 -3 7 1 4 9 -7 18 -14 21 -14 7z"/>
<path d="M3700 4280 c-9 -16 -8 -22 5 -26 8 -3 22 -3 30 0 13 4 14 10 5 26 -6
11 -15 20 -20 20 -5 0 -14 -9 -20 -20z"/>
<path d="M6520 4050 c0 -5 5 -10 11 -10 5 0 7 5 4 10 -3 6 -8 10 -11 10 -2 0
-4 -4 -4 -10z"/>
<path d="M6510 4010 c0 -5 5 -10 11 -10 6 0 3 -7 -5 -16 -21 -20 -21 -30 0
-13 13 10 17 10 25 -2 12 -20 11 -5 -3 26 -11 25 -28 34 -28 15z"/>
<path d="M6487 3886 c-4 -10 -1 -13 8 -9 8 3 12 9 9 14 -7 12 -11 11 -17 -5z"/>
<path d="M5390 4499 c0 -5 5 -7 10 -4 6 3 10 8 10 11 0 2 -4 4 -10 4 -5 0 -10
-5 -10 -11z"/>
<path d="M5374 4409 c-3 -6 -1 -16 5 -22 9 -9 11 -8 6 6 -5 11 -2 17 8 17 10
0 13 -8 9 -25 -2 -15 0 -25 8 -25 7 0 9 8 5 20 -4 12 -2 20 5 20 6 0 8 5 5 10
-8 13 -42 13 -51 -1z"/>
<path d="M5360 4358 c0 -27 17 -41 35 -31 12 7 14 13 6 17 -6 4 -11 2 -11 -4
0 -6 -5 -8 -11 -5 -6 4 -8 13 -5 21 3 8 1 14 -4 14 -6 0 -10 -6 -10 -12z"/>
<path d="M5315 4280 c3 -5 8 -10 11 -10 2 0 4 5 4 10 0 6 -5 10 -11 10 -5 0
-7 -4 -4 -10z"/>
<path d="M5250 4183 c0 -17 16 -29 40 -31 19 -1 22 1 10 9 -33 22 -50 29 -50
22z"/>
<path d="M5223 4165 c-10 -10 -9 -15 4 -19 21 -8 27 -1 16 17 -6 12 -10 13
-20 2z"/>
<path d="M5173 4085 c2 -5 10 -10 17 -10 7 0 15 5 17 10 2 6 -6 11 -17 11 -11
0 -19 -5 -17 -11z"/>
<path d="M4766 3598 c3 -5 10 -6 15 -3 13 9 11 12 -6 12 -8 0 -12 -4 -9 -9z"/>
<path d="M4510 3530 c0 -22 5 -30 18 -29 10 0 12 3 5 6 -7 2 -13 14 -13 24 0
13 4 18 12 13 7 -4 8 -3 4 4 -13 22 -26 12 -26 -18z"/>
<path d="M4731 3504 c0 -11 3 -14 6 -6 3 7 2 16 -1 19 -3 4 -6 -2 -5 -13z"/>
<path d="M4781 3498 c-1 -15 4 -30 9 -33 12 -7 12 12 0 40 -8 18 -9 17 -9 -7z"/>
<path d="M4555 3501 c-6 -5 -19 -11 -30 -14 -17 -4 -16 -5 5 -7 23 -1 23 -2 5
-10 -17 -7 -17 -9 -2 -9 19 -1 23 -16 7 -24 -6 -3 -5 -4 2 -3 7 2 13 14 13 27
0 13 4 30 8 37 10 14 5 16 -8 3z"/>
<path d="M4721 3458 c-1 -10 8 -22 19 -28 18 -10 20 -8 20 17 -1 26 -2 26 -12
8 -11 -19 -11 -19 -19 0 -6 17 -8 17 -8 3z"/>
<path d="M4540 3410 c-9 -6 -10 -10 -3 -10 6 0 15 5 18 10 8 12 4 12 -15 0z"/>
<path d="M4660 3360 c-9 -6 -10 -10 -3 -10 6 0 15 5 18 10 8 12 4 12 -15 0z"/>
<path d="M6216 3838 c3 -5 10 -6 15 -3 13 9 11 12 -6 12 -8 0 -12 -4 -9 -9z"/>
<path d="M6240 3809 c0 -5 5 -7 10 -4 6 3 10 8 10 11 0 2 -4 4 -10 4 -5 0 -10
-5 -10 -11z"/>
<path d="M6215 3650 c3 -5 8 -10 11 -10 2 0 4 5 4 10 0 6 -5 10 -11 10 -5 0
-7 -4 -4 -10z"/>
<path d="M5990 3490 c0 -5 5 -10 10 -10 6 0 10 5 10 10 0 6 -4 10 -10 10 -5 0
-10 -4 -10 -10z"/>
<path d="M6066 3432 c-3 -5 1 -9 9 -9 8 0 15 4 15 9 0 4 -4 8 -9 8 -6 0 -12
-4 -15 -8z"/>
<path d="M6067 3353 c-10 -9 -9 -23 2 -23 5 0 11 7 15 15 5 15 -5 20 -17 8z"/>
<path d="M6010 3309 c0 -5 5 -7 10 -4 6 3 10 8 10 11 0 2 -4 4 -10 4 -5 0 -10
-5 -10 -11z"/>
<path d="M5901 3251 c-8 -5 -9 -11 -3 -15 5 -3 12 1 16 9 6 17 6 18 -13 6z"/>
<path d="M5340 2821 c0 -6 4 -13 10 -16 6 -3 7 1 4 9 -7 18 -14 21 -14 7z"/>
<path d="M5311 2783 c-6 -13 -16 -21 -21 -18 -6 4 -7 -1 -3 -11 4 -11 8 -13
11 -6 2 7 8 12 13 12 6 0 8 -4 4 -9 -3 -5 0 -13 6 -17 9 -5 10 1 5 20 -6 25
-5 26 16 15 l22 -12 -25 -21 c-20 -17 -23 -25 -13 -33 9 -9 13 -8 18 5 3 9 11
25 18 34 10 14 8 21 -14 41 l-26 24 -11 -24z"/>
<path d="M989 5457 c-57 -38 -60 -50 -57 -279 l3 -208 33 -32 c32 -33 33 -33
147 -36 l115 -4 0 187 c0 127 -3 184 -10 180 -6 -4 -16 -3 -23 3 -18 13 -117
13 -117 0 0 -6 3 -8 7 -5 3 4 12 2 19 -3 6 -6 16 -10 20 -9 31 5 55 -25 29
-35 -9 -3 -12 0 -9 9 7 16 -18 14 -39 -3 -8 -7 -23 -9 -32 -5 -14 5 -16 3 -10
-8 8 -12 6 -12 -9 0 -9 8 -16 24 -15 35 1 12 -1 29 -5 38 -4 9 -6 27 -4 40 3
22 7 23 99 26 109 3 109 3 109 90 l0 42 -109 0 c-96 0 -112 -3 -142 -23z m215
-224 c3 -8 2 -12 -3 -9 -5 3 -11 -3 -14 -14 -3 -11 0 -20 6 -20 7 -1 2 -6 -11
-13 -12 -7 -20 -16 -17 -20 3 -4 2 -5 -2 -2 -10 8 -11 45 -1 39 7 -5 11 11 11
42 0 16 25 13 31 -3z m-100 -56 c-2 -7 -14 -14 -27 -14 -17 -2 -19 0 -7 7 12
8 11 10 -5 11 -16 1 -16 2 5 8 30 9 41 5 34 -12z"/>
<path d="M1058 5265 c-4 -4 2 -17 13 -28 15 -16 22 -18 31 -9 9 9 9 15 -1 25
-11 10 -13 9 -8 -5 9 -25 -8 -22 -19 3 -5 11 -12 17 -16 14z"/>
</g>
</svg>
