<!DOCTYPE svg PUBLIC "-//W3C//DTD SVG 1.1//EN" "http://www.w3.org/Graphics/SVG/1.1/DTD/svg11.dtd">

<!-- Uploaded to: SVG Repo, www.svgrepo.com, Transformed by: SVG Repo Mixer Tools -->
<svg fill="#000000" height="64px" width="64px" version="1.1" id="Layer_1" xmlns="http://www.w3.org/2000/svg" xmlns:xlink="http://www.w3.org/1999/xlink" viewBox="-71.69 -71.69 655.42 655.42" xml:space="preserve">

<g id="SVGRepo_bgCarrier" stroke-width="0"/>

<g id="SVGRepo_tracerCarrier" stroke-linecap="round" stroke-linejoin="round"/>

<g id="SVGRepo_iconCarrier"> <g> <g> <g> <path d="M399.019,132.689l-128-126.528c-8.311-8.215-21.684-8.215-29.995,0l-128,126.528c-4.054,4.008-6.336,9.471-6.336,15.172 V256c0,19.006,22.979,28.524,36.418,15.085L256.021,158.17l112.915,112.915c13.439,13.439,36.418,3.921,36.418-15.085V147.861 C405.355,142.161,403.073,136.697,399.019,132.689z M362.688,204.497l-91.582-91.582c-8.331-8.331-21.839-8.331-30.17,0 l-91.582,91.582V156.77L256.021,51.33l106.667,105.44V204.497z"/> <path d="M271.019,240.828c-8.311-8.215-21.684-8.215-29.995,0l-128,126.528c-4.054,4.008-6.336,9.471-6.336,15.172v108.139 c0,19.006,22.979,28.524,36.418,15.085l112.915-112.915l112.915,112.915c13.439,13.439,36.418,3.921,36.418-15.085V382.528 c0-5.701-2.282-11.164-6.336-15.172L271.019,240.828z M362.688,439.163l-91.582-91.582c-8.331-8.331-21.839-8.331-30.17,0 l-91.582,91.582v-47.727l106.667-105.44l106.667,105.44V439.163z"/> </g> </g> </g> </g>

</svg>